<svg xmlns="http://www.w3.org/2000/svg" width="82.925" height="75.065" viewBox="0 0 82.925 75.065">
  <g id="Service_icon_heart" data-name="Service/icon/heart" transform="translate(1 1.004)">
    <path id="Shape" d="M0,10.7H20.231a1.776,1.776,0,0,0,1.407-.685L24.9,5.784a1.787,1.787,0,0,1,2.871.075l3.976,5.823A1.783,1.783,0,0,0,34.78,11.5L40.2.947a1.769,1.769,0,0,1,1.736-.94,1.748,1.748,0,0,1,1.529,1.234l4.553,15.514a1.748,1.748,0,0,0,1.528,1.236,1.769,1.769,0,0,0,1.737-.938l2.769-5.392a1.765,1.765,0,0,1,1.573-.949h25.3" transform="translate(0 33)" fill="none" stroke="#0c488e" stroke-linecap="round" stroke-linejoin="round" stroke-miterlimit="10" stroke-width="2"/>
    <path id="Shape-2" data-name="Shape" d="M69.3,37a37.872,37.872,0,0,0,4.367-16.567c0-25.865-32.678-27.884-36.831-1.981C32.678-7.451,0-5.433,0,22.421A37.207,37.207,0,0,0,3.2,37" transform="translate(3.112)" fill="none" stroke="#08b3e3" stroke-linecap="round" stroke-linejoin="round" stroke-miterlimit="10" stroke-width="2"/>
    <path id="Shape-3" data-name="Shape" d="M0,0A113.716,113.716,0,0,0,24.673,21.7a1.9,1.9,0,0,0,2.145-.065A142.218,142.218,0,0,0,49.8,0" transform="translate(14.525 51)" fill="none" stroke="#08b3e3" stroke-linecap="round" stroke-linejoin="round" stroke-miterlimit="10" stroke-width="2"/>
  </g>
</svg>
