<svg xmlns="http://www.w3.org/2000/svg" width="82.925" height="80" viewBox="0 0 82.925 80">
  <g id="Service_icon_teeth" data-name="Service/icon/teeth" transform="translate(1 1)">
    <ellipse id="Oval" cx="21.269" cy="20.5" rx="21.269" ry="20.5" stroke-width="2" transform="translate(38.388 7)" stroke="#0c488e" stroke-linecap="round" stroke-linejoin="round" stroke-miterlimit="10" fill="none"/>
    <path id="Shape" d="M19.712,0,9.377,12.994a2.728,2.728,0,0,1-1.95,1,2.777,2.777,0,0,1-2.081-.727L0,8.233" transform="translate(49.8 21)" fill="none" stroke="#08b3e3" stroke-linecap="round" stroke-linejoin="round" stroke-miterlimit="10" stroke-width="2"/>
    <path id="Shape-2" data-name="Shape" d="M50.622,1.357A14.221,14.221,0,0,0,44.561,0,16.658,16.658,0,0,0,30.555,7.529,16.665,16.665,0,0,0,16.546,0C7.408,0,0,8.77,0,19.893,0,31.929,3.975,39.61,9.057,44.531A49.972,49.972,0,0,0,5.089,64.4,52.833,52.833,0,0,0,6.235,75.416,3.324,3.324,0,0,0,9.507,78a3.457,3.457,0,0,0,3.465-3.015c1.4-12.324,8.732-21.7,17.586-21.7s16.2,9.387,17.586,21.7A3.457,3.457,0,0,0,51.61,78a3.32,3.32,0,0,0,3.269-2.584A52.6,52.6,0,0,0,56.025,64.4a52.677,52.677,0,0,0-1.048-10.469" fill="none" stroke="#08b3e3" stroke-linecap="round" stroke-linejoin="round" stroke-miterlimit="10" stroke-width="2"/>
  </g>
</svg>
