<svg xmlns="http://www.w3.org/2000/svg" width="75.662" height="80" viewBox="0 0 75.662 80">
  <g id="Service_icon_primary" data-name="Service/icon/primary" transform="translate(1 1)">
    <ellipse id="Oval" cx="10.894" cy="10.5" rx="10.894" ry="10.5" stroke-width="2" transform="translate(51.875 17)" stroke="#0c488e" stroke-linecap="round" stroke-linejoin="round" stroke-miterlimit="10" fill="none"/>
    <path id="Shape" d="M10.583,0C4.738,0,0,4.477,0,10V23.333H0C0,32.538,7.9,40,17.638,40s17.638-7.462,17.638-16.667V10c0-5.523-4.738-10-10.583-10" transform="translate(0 3)" fill="none" stroke="#08b3e3" stroke-linecap="round" stroke-linejoin="round" stroke-miterlimit="10" stroke-width="2"/>
    <path id="Shape-2" data-name="Shape" d="M0,6.667V33.333A6.852,6.852,0,0,0,7.023,40a6.852,6.852,0,0,0,7.023-6.667V14.107a8.565,8.565,0,0,1,8.779-8.333A8.565,8.565,0,0,1,31.6,14.107v12.56a7.033,7.033,0,0,0,14.046,0V0" transform="translate(17.638 38)" fill="none" stroke="#08b3e3" stroke-linecap="round" stroke-linejoin="round" stroke-miterlimit="10" stroke-width="2"/>
    <path id="Shape-3" data-name="Shape" d="M0,0V9" transform="translate(11.413)" fill="none" stroke="#0c488e" stroke-linecap="round" stroke-linejoin="round" stroke-miterlimit="10" stroke-width="2"/>
    <path id="Shape-4" data-name="Shape" d="M0,0V9" transform="translate(24.9)" fill="none" stroke="#0c488e" stroke-linecap="round" stroke-linejoin="round" stroke-miterlimit="10" stroke-width="2"/>
  </g>
</svg>
