<svg xmlns="http://www.w3.org/2000/svg" width="16.04" height="16.04" viewBox="0 0 16.04 16.04">
  <g id="Icon_clock" data-name="Icon/clock" transform="translate(0.04)">
    <g id="Group" transform="translate(0.667 0.667)">
      <path id="Shape" d="M6,0,0,6" transform="translate(0 8.667)" fill="rgba(255,255,255,0)" stroke="#fff" stroke-linecap="round" stroke-linejoin="round" stroke-miterlimit="10" stroke-width="1"/>
      <path id="Shape-2" data-name="Shape" d="M10,5.186a.453.453,0,0,0,.641,0l.509-.509a.641.641,0,0,0,0-.907L7.563.188a.641.641,0,0,0-.907,0L6.148.7a.453.453,0,0,0,0,.641.453.453,0,0,1,0,.641l-2.7,2.7A.641.641,0,0,1,3,4.865H.962a.641.641,0,0,0-.453.188l-.321.321a.641.641,0,0,0,0,.907l4.865,4.865a.641.641,0,0,0,.907,0l.321-.321a.641.641,0,0,0,.188-.453V8.338a.641.641,0,0,1,.188-.453l2.7-2.7a.453.453,0,0,1,.641,0Z" transform="translate(3.333)" fill="rgba(255,255,255,0)" stroke="#fff" stroke-linecap="round" stroke-linejoin="round" stroke-miterlimit="10" stroke-width="1"/>
    </g>
  </g>
</svg>
