<svg id="Icon_clock" data-name="Icon/clock" xmlns="http://www.w3.org/2000/svg" width="16" height="16" viewBox="0 0 16 16">
  <g id="Group" transform="translate(0.667 0.667)">
    <path id="Shape" d="M0,3.333H.593A1.9,1.9,0,0,0,2.667,1.4V0" transform="translate(10 10.667)" fill="none" stroke="#fff" stroke-linecap="round" stroke-linejoin="round" stroke-miterlimit="10" stroke-width="1"/>
    <path id="Shape-2" data-name="Shape" d="M0,0A2.682,2.682,0,0,1,2.628,2.264,2.732,2.732,0,0,1,.889,5.294a.654.654,0,0,1-.607-.086A.686.686,0,0,1,0,4.653Z" transform="translate(12 5.333)" fill="none" stroke="#fff" stroke-linecap="round" stroke-linejoin="round" stroke-miterlimit="10" stroke-width="1"/>
    <path id="Shape-3" data-name="Shape" d="M2.667,0A2.682,2.682,0,0,0,.039,2.264a2.732,2.732,0,0,0,1.739,3.03.654.654,0,0,0,.607-.086.686.686,0,0,0,.282-.556Z" transform="translate(0 5.333)" fill="none" stroke="#fff" stroke-linecap="round" stroke-linejoin="round" stroke-miterlimit="10" stroke-width="1"/>
    <path id="Shape-4" data-name="Shape" d="M9.333,6V4.737A4.7,4.7,0,0,0,4.667,0,4.7,4.7,0,0,0,0,4.737V6" transform="translate(2.667 0)" fill="none" stroke="#fff" stroke-linecap="round" stroke-linejoin="round" stroke-miterlimit="10" stroke-width="1"/>
    <path id="Shape-5" data-name="Shape" d="M.606,0H3.03a.319.319,0,0,1,.3.333V1a.319.319,0,0,1-.3.333H.606A.639.639,0,0,1,0,.667H0A.639.639,0,0,1,.606,0Z" transform="translate(6.667 13.333)" fill="none" stroke="#fff" stroke-linecap="round" stroke-linejoin="round" stroke-miterlimit="10" stroke-width="1"/>
  </g>
</svg>
