<svg xmlns="http://www.w3.org/2000/svg" width="50" height="38.997" viewBox="0 0 50 38.997">
  <path id="Path" d="M45.833,0H4.167A4.2,4.2,0,0,0,0,4.211V17.348H12.814l2.8-7.239a2.076,2.076,0,0,1,3.918.1l3.961,12.039,4.275-10.277a2.084,2.084,0,0,1,1.844-1.287,2.043,2.043,0,0,1,1.932,1.146l2.787,5.517h2.822a2.105,2.105,0,0,1,0,4.211h-4.1A2.082,2.082,0,0,1,31.2,20.412L29.872,17.78,25.185,29.043a2.084,2.084,0,0,1-1.92,1.292c-.027,0-.054,0-.081,0a2.084,2.084,0,0,1-1.9-1.439L17.4,17.067,16.177,20.22a2.082,2.082,0,0,1-1.941,1.338H0V34.786A4.2,4.2,0,0,0,4.167,39H45.833A4.2,4.2,0,0,0,50,34.786V4.208A4.2,4.2,0,0,0,45.833,0Z" fill="#fff"/>
</svg>
