<svg id="Pattern" xmlns="http://www.w3.org/2000/svg" width="200" height="200" viewBox="0 0 200 200">
  <circle id="Oval" cx="5.128" cy="5.128" r="5.128" transform="translate(0 0)" fill="rgba(255,0,0,0.06)"/>
  <circle id="Oval_Copy_48" data-name="Oval Copy 48" cx="5.128" cy="5.128" r="5.128" transform="translate(0 84.103)" fill="rgba(255,0,0,0.06)"/>
  <circle id="Oval_Copy_26" data-name="Oval Copy 26" cx="5.128" cy="5.128" r="5.128" transform="translate(0 42.051)" fill="rgba(255,0,0,0.06)"/>
  <circle id="Oval_Copy_49" data-name="Oval Copy 49" cx="5.128" cy="5.128" r="5.128" transform="translate(0 126.154)" fill="rgba(255,0,0,0.06)"/>
  <circle id="Oval_Copy_92" data-name="Oval Copy 92" cx="5.128" cy="5.128" r="5.128" transform="translate(0 168.205)" fill="rgba(255,0,0,0.06)"/>
  <circle id="Oval_Copy_15" data-name="Oval Copy 15" cx="5.128" cy="5.128" r="5.128" transform="translate(0 21.538)" fill="rgba(255,0,0,0.06)"/>
  <circle id="Oval_Copy_50" data-name="Oval Copy 50" cx="5.128" cy="5.128" r="5.128" transform="translate(0 105.641)" fill="rgba(255,0,0,0.06)"/>
  <circle id="Oval_Copy_27" data-name="Oval Copy 27" cx="5.128" cy="5.128" r="5.128" transform="translate(0 63.59)" fill="rgba(255,0,0,0.06)"/>
  <circle id="Oval_Copy_51" data-name="Oval Copy 51" cx="5.128" cy="5.128" r="5.128" transform="translate(0 147.692)" fill="rgba(255,0,0,0.06)"/>
  <circle id="Oval_Copy_93" data-name="Oval Copy 93" cx="5.128" cy="5.128" r="5.128" transform="translate(0 189.744)" fill="rgba(255,0,0,0.06)"/>
  <circle id="Oval_Copy_5" data-name="Oval Copy 5" cx="5.128" cy="5.128" r="5.128" transform="translate(21.538 0)" fill="rgba(255,0,0,0.06)"/>
  <circle id="Oval_Copy_52" data-name="Oval Copy 52" cx="5.128" cy="5.128" r="5.128" transform="translate(21.538 84.103)" fill="rgba(255,0,0,0.06)"/>
  <circle id="Oval_Copy_28" data-name="Oval Copy 28" cx="5.128" cy="5.128" r="5.128" transform="translate(21.538 42.051)" fill="rgba(255,0,0,0.06)"/>
  <circle id="Oval_Copy_53" data-name="Oval Copy 53" cx="5.128" cy="5.128" r="5.128" transform="translate(21.538 126.154)" fill="rgba(255,0,0,0.06)"/>
  <circle id="Oval_Copy_94" data-name="Oval Copy 94" cx="5.128" cy="5.128" r="5.128" transform="translate(21.538 168.205)" fill="rgba(255,0,0,0.06)"/>
  <circle id="Oval_Copy_16" data-name="Oval Copy 16" cx="5.128" cy="5.128" r="5.128" transform="translate(21.538 21.538)" fill="rgba(255,0,0,0.06)"/>
  <circle id="Oval_Copy_54" data-name="Oval Copy 54" cx="5.128" cy="5.128" r="5.128" transform="translate(21.538 105.641)" fill="rgba(255,0,0,0.06)"/>
  <circle id="Oval_Copy_29" data-name="Oval Copy 29" cx="5.128" cy="5.128" r="5.128" transform="translate(21.538 63.59)" fill="rgba(255,0,0,0.06)"/>
  <circle id="Oval_Copy_55" data-name="Oval Copy 55" cx="5.128" cy="5.128" r="5.128" transform="translate(21.538 147.692)" fill="rgba(255,0,0,0.06)"/>
  <circle id="Oval_Copy_95" data-name="Oval Copy 95" cx="5.128" cy="5.128" r="5.128" transform="translate(21.538 189.744)" fill="rgba(255,0,0,0.06)"/>
  <circle id="Oval_Copy_6" data-name="Oval Copy 6" cx="5.128" cy="5.128" r="5.128" transform="translate(42.051 0)" fill="rgba(255,0,0,0.06)"/>
  <circle id="Oval_Copy_56" data-name="Oval Copy 56" cx="5.128" cy="5.128" r="5.128" transform="translate(42.051 84.103)" fill="rgba(255,0,0,0.06)"/>
  <circle id="Oval_Copy_30" data-name="Oval Copy 30" cx="5.128" cy="5.128" r="5.128" transform="translate(42.051 42.051)" fill="rgba(255,0,0,0.06)"/>
  <circle id="Oval_Copy_57" data-name="Oval Copy 57" cx="5.128" cy="5.128" r="5.128" transform="translate(42.051 126.154)" fill="rgba(255,0,0,0.06)"/>
  <circle id="Oval_Copy_96" data-name="Oval Copy 96" cx="5.128" cy="5.128" r="5.128" transform="translate(42.051 168.205)" fill="rgba(255,0,0,0.06)"/>
  <circle id="Oval_Copy_17" data-name="Oval Copy 17" cx="5.128" cy="5.128" r="5.128" transform="translate(42.051 21.538)" fill="rgba(255,0,0,0.06)"/>
  <circle id="Oval_Copy_58" data-name="Oval Copy 58" cx="5.128" cy="5.128" r="5.128" transform="translate(42.051 105.641)" fill="rgba(255,0,0,0.06)"/>
  <circle id="Oval_Copy_31" data-name="Oval Copy 31" cx="5.128" cy="5.128" r="5.128" transform="translate(42.051 63.59)" fill="rgba(255,0,0,0.06)"/>
  <circle id="Oval_Copy_59" data-name="Oval Copy 59" cx="5.128" cy="5.128" r="5.128" transform="translate(42.051 147.692)" fill="rgba(255,0,0,0.06)"/>
  <circle id="Oval_Copy_97" data-name="Oval Copy 97" cx="5.128" cy="5.128" r="5.128" transform="translate(42.051 189.744)" fill="rgba(255,0,0,0.06)"/>
  <circle id="Oval_Copy_7" data-name="Oval Copy 7" cx="5.128" cy="5.128" r="5.128" transform="translate(63.59 0)" fill="rgba(255,0,0,0.06)"/>
  <circle id="Oval_Copy_60" data-name="Oval Copy 60" cx="5.128" cy="5.128" r="5.128" transform="translate(63.59 84.103)" fill="rgba(255,0,0,0.06)"/>
  <circle id="Oval_Copy_32" data-name="Oval Copy 32" cx="5.128" cy="5.128" r="5.128" transform="translate(63.59 42.051)" fill="rgba(255,0,0,0.06)"/>
  <circle id="Oval_Copy_61" data-name="Oval Copy 61" cx="5.128" cy="5.128" r="5.128" transform="translate(63.59 126.154)" fill="rgba(255,0,0,0.06)"/>
  <circle id="Oval_Copy_98" data-name="Oval Copy 98" cx="5.128" cy="5.128" r="5.128" transform="translate(63.59 168.205)" fill="rgba(255,0,0,0.06)"/>
  <circle id="Oval_Copy_18" data-name="Oval Copy 18" cx="5.128" cy="5.128" r="5.128" transform="translate(63.59 21.538)" fill="rgba(255,0,0,0.06)"/>
  <circle id="Oval_Copy_62" data-name="Oval Copy 62" cx="5.128" cy="5.128" r="5.128" transform="translate(63.59 105.641)" fill="rgba(255,0,0,0.06)"/>
  <circle id="Oval_Copy_33" data-name="Oval Copy 33" cx="5.128" cy="5.128" r="5.128" transform="translate(63.59 63.59)" fill="rgba(255,0,0,0.06)"/>
  <circle id="Oval_Copy_63" data-name="Oval Copy 63" cx="5.128" cy="5.128" r="5.128" transform="translate(63.59 147.692)" fill="rgba(255,0,0,0.06)"/>
  <circle id="Oval_Copy_99" data-name="Oval Copy 99" cx="5.128" cy="5.128" r="5.128" transform="translate(63.59 189.744)" fill="rgba(255,0,0,0.06)"/>
  <circle id="Oval_Copy_8" data-name="Oval Copy 8" cx="5.128" cy="5.128" r="5.128" transform="translate(84.103 0)" fill="rgba(255,0,0,0.06)"/>
  <circle id="Oval_Copy_64" data-name="Oval Copy 64" cx="5.128" cy="5.128" r="5.128" transform="translate(84.103 84.103)" fill="rgba(255,0,0,0.06)"/>
  <circle id="Oval_Copy_34" data-name="Oval Copy 34" cx="5.128" cy="5.128" r="5.128" transform="translate(84.103 42.051)" fill="rgba(255,0,0,0.06)"/>
  <circle id="Oval_Copy_65" data-name="Oval Copy 65" cx="5.128" cy="5.128" r="5.128" transform="translate(84.103 126.154)" fill="rgba(255,0,0,0.06)"/>
  <circle id="Oval_Copy_100" data-name="Oval Copy 100" cx="5.128" cy="5.128" r="5.128" transform="translate(84.103 168.205)" fill="rgba(255,0,0,0.06)"/>
  <circle id="Oval_Copy_19" data-name="Oval Copy 19" cx="5.128" cy="5.128" r="5.128" transform="translate(84.103 21.538)" fill="rgba(255,0,0,0.06)"/>
  <circle id="Oval_Copy_66" data-name="Oval Copy 66" cx="5.128" cy="5.128" r="5.128" transform="translate(84.103 105.641)" fill="rgba(255,0,0,0.06)"/>
  <circle id="Oval_Copy_35" data-name="Oval Copy 35" cx="5.128" cy="5.128" r="5.128" transform="translate(84.103 63.59)" fill="rgba(255,0,0,0.06)"/>
  <circle id="Oval_Copy_67" data-name="Oval Copy 67" cx="5.128" cy="5.128" r="5.128" transform="translate(84.103 147.692)" fill="rgba(255,0,0,0.06)"/>
  <circle id="Oval_Copy_101" data-name="Oval Copy 101" cx="5.128" cy="5.128" r="5.128" transform="translate(84.103 189.744)" fill="rgba(255,0,0,0.06)"/>
  <circle id="Oval_Copy_9" data-name="Oval Copy 9" cx="5.128" cy="5.128" r="5.128" transform="translate(105.641 0)" fill="rgba(255,0,0,0.06)"/>
  <circle id="Oval_Copy_68" data-name="Oval Copy 68" cx="5.128" cy="5.128" r="5.128" transform="translate(105.641 84.103)" fill="rgba(255,0,0,0.06)"/>
  <circle id="Oval_Copy_36" data-name="Oval Copy 36" cx="5.128" cy="5.128" r="5.128" transform="translate(105.641 42.051)" fill="rgba(255,0,0,0.06)"/>
  <circle id="Oval_Copy_20" data-name="Oval Copy 20" cx="5.128" cy="5.128" r="5.128" transform="translate(105.641 21.538)" fill="rgba(255,0,0,0.06)"/>
  <circle id="Oval_Copy_69" data-name="Oval Copy 69" cx="5.128" cy="5.128" r="5.128" transform="translate(105.641 105.641)" fill="rgba(255,0,0,0.06)"/>
  <circle id="Oval_Copy_37" data-name="Oval Copy 37" cx="5.128" cy="5.128" r="5.128" transform="translate(105.641 63.59)" fill="rgba(255,0,0,0.06)"/>
  <circle id="Oval_Copy_70" data-name="Oval Copy 70" cx="5.128" cy="5.128" r="5.128" transform="translate(105.641 147.692)" fill="rgba(255,0,0,0.06)"/>
  <circle id="Oval_Copy_102" data-name="Oval Copy 102" cx="5.128" cy="5.128" r="5.128" transform="translate(105.641 189.744)" fill="rgba(255,0,0,0.06)"/>
  <circle id="Oval_Copy_10" data-name="Oval Copy 10" cx="5.128" cy="5.128" r="5.128" transform="translate(126.154 0)" fill="rgba(255,0,0,0.06)"/>
  <circle id="Oval_Copy_71" data-name="Oval Copy 71" cx="5.128" cy="5.128" r="5.128" transform="translate(126.154 84.103)" fill="rgba(255,0,0,0.06)"/>
  <circle id="Oval_Copy_38" data-name="Oval Copy 38" cx="5.128" cy="5.128" r="5.128" transform="translate(126.154 42.051)" fill="rgba(255,0,0,0.06)"/>
  <circle id="Oval_Copy_72" data-name="Oval Copy 72" cx="5.128" cy="5.128" r="5.128" transform="translate(126.154 126.154)" fill="rgba(255,0,0,0.06)"/>
  <circle id="Oval_Copy_103" data-name="Oval Copy 103" cx="5.128" cy="5.128" r="5.128" transform="translate(126.154 168.205)" fill="rgba(255,0,0,0.06)"/>
  <circle id="Oval_Copy_91" data-name="Oval Copy 91" cx="5.128" cy="5.128" r="5.128" transform="translate(105.641 126.154)" fill="rgba(255,0,0,0.06)"/>
  <circle id="Oval_Copy_104" data-name="Oval Copy 104" cx="5.128" cy="5.128" r="5.128" transform="translate(105.641 168.205)" fill="rgba(255,0,0,0.06)"/>
  <circle id="Oval_Copy_21" data-name="Oval Copy 21" cx="5.128" cy="5.128" r="5.128" transform="translate(126.154 21.538)" fill="rgba(255,0,0,0.06)"/>
  <circle id="Oval_Copy_73" data-name="Oval Copy 73" cx="5.128" cy="5.128" r="5.128" transform="translate(126.154 105.641)" fill="rgba(255,0,0,0.06)"/>
  <circle id="Oval_Copy_39" data-name="Oval Copy 39" cx="5.128" cy="5.128" r="5.128" transform="translate(126.154 63.59)" fill="rgba(255,0,0,0.06)"/>
  <circle id="Oval_Copy_74" data-name="Oval Copy 74" cx="5.128" cy="5.128" r="5.128" transform="translate(126.154 147.692)" fill="rgba(255,0,0,0.06)"/>
  <circle id="Oval_Copy_105" data-name="Oval Copy 105" cx="5.128" cy="5.128" r="5.128" transform="translate(126.154 189.744)" fill="rgba(255,0,0,0.06)"/>
  <circle id="Oval_Copy_11" data-name="Oval Copy 11" cx="5.128" cy="5.128" r="5.128" transform="translate(147.692 0)" fill="rgba(255,0,0,0.06)"/>
  <circle id="Oval_Copy_75" data-name="Oval Copy 75" cx="5.128" cy="5.128" r="5.128" transform="translate(147.692 84.103)" fill="rgba(255,0,0,0.06)"/>
  <circle id="Oval_Copy_40" data-name="Oval Copy 40" cx="5.128" cy="5.128" r="5.128" transform="translate(147.692 42.051)" fill="rgba(255,0,0,0.06)"/>
  <circle id="Oval_Copy_76" data-name="Oval Copy 76" cx="5.128" cy="5.128" r="5.128" transform="translate(147.692 126.154)" fill="rgba(255,0,0,0.06)"/>
  <circle id="Oval_Copy_106" data-name="Oval Copy 106" cx="5.128" cy="5.128" r="5.128" transform="translate(147.692 168.205)" fill="rgba(255,0,0,0.06)"/>
  <circle id="Oval_Copy_22" data-name="Oval Copy 22" cx="5.128" cy="5.128" r="5.128" transform="translate(147.692 21.538)" fill="rgba(255,0,0,0.06)"/>
  <circle id="Oval_Copy_77" data-name="Oval Copy 77" cx="5.128" cy="5.128" r="5.128" transform="translate(147.692 105.641)" fill="rgba(255,0,0,0.06)"/>
  <circle id="Oval_Copy_41" data-name="Oval Copy 41" cx="5.128" cy="5.128" r="5.128" transform="translate(147.692 63.59)" fill="rgba(255,0,0,0.06)"/>
  <circle id="Oval_Copy_78" data-name="Oval Copy 78" cx="5.128" cy="5.128" r="5.128" transform="translate(147.692 147.692)" fill="rgba(255,0,0,0.06)"/>
  <circle id="Oval_Copy_107" data-name="Oval Copy 107" cx="5.128" cy="5.128" r="5.128" transform="translate(147.692 189.744)" fill="rgba(255,0,0,0.06)"/>
  <circle id="Oval_Copy_12" data-name="Oval Copy 12" cx="5.128" cy="5.128" r="5.128" transform="translate(168.205 0)" fill="rgba(255,0,0,0.06)"/>
  <circle id="Oval_Copy_79" data-name="Oval Copy 79" cx="5.128" cy="5.128" r="5.128" transform="translate(168.205 84.103)" fill="rgba(255,0,0,0.06)"/>
  <circle id="Oval_Copy_42" data-name="Oval Copy 42" cx="5.128" cy="5.128" r="5.128" transform="translate(168.205 42.051)" fill="rgba(255,0,0,0.06)"/>
  <circle id="Oval_Copy_80" data-name="Oval Copy 80" cx="5.128" cy="5.128" r="5.128" transform="translate(168.205 126.154)" fill="rgba(255,0,0,0.06)"/>
  <circle id="Oval_Copy_108" data-name="Oval Copy 108" cx="5.128" cy="5.128" r="5.128" transform="translate(168.205 168.205)" fill="rgba(255,0,0,0.06)"/>
  <circle id="Oval_Copy_23" data-name="Oval Copy 23" cx="5.128" cy="5.128" r="5.128" transform="translate(168.205 21.538)" fill="rgba(255,0,0,0.06)"/>
  <circle id="Oval_Copy_81" data-name="Oval Copy 81" cx="5.128" cy="5.128" r="5.128" transform="translate(168.205 105.641)" fill="rgba(255,0,0,0.06)"/>
  <circle id="Oval_Copy_43" data-name="Oval Copy 43" cx="5.128" cy="5.128" r="5.128" transform="translate(168.205 63.59)" fill="rgba(255,0,0,0.06)"/>
  <circle id="Oval_Copy_82" data-name="Oval Copy 82" cx="5.128" cy="5.128" r="5.128" transform="translate(168.205 147.692)" fill="rgba(255,0,0,0.06)"/>
  <circle id="Oval_Copy_109" data-name="Oval Copy 109" cx="5.128" cy="5.128" r="5.128" transform="translate(168.205 189.744)" fill="rgba(255,0,0,0.06)"/>
  <circle id="Oval_Copy_14" data-name="Oval Copy 14" cx="5.128" cy="5.128" r="5.128" transform="translate(189.744 0)" fill="rgba(255,0,0,0.06)"/>
  <circle id="Oval_Copy_87" data-name="Oval Copy 87" cx="5.128" cy="5.128" r="5.128" transform="translate(189.744 84.103)" fill="rgba(255,0,0,0.06)"/>
  <circle id="Oval_Copy_46" data-name="Oval Copy 46" cx="5.128" cy="5.128" r="5.128" transform="translate(189.744 42.051)" fill="rgba(255,0,0,0.06)"/>
  <circle id="Oval_Copy_88" data-name="Oval Copy 88" cx="5.128" cy="5.128" r="5.128" transform="translate(189.744 126.154)" fill="rgba(255,0,0,0.06)"/>
  <circle id="Oval_Copy_112" data-name="Oval Copy 112" cx="5.128" cy="5.128" r="5.128" transform="translate(189.744 168.205)" fill="rgba(255,0,0,0.06)"/>
  <circle id="Oval_Copy_25" data-name="Oval Copy 25" cx="5.128" cy="5.128" r="5.128" transform="translate(189.744 21.538)" fill="rgba(255,0,0,0.06)"/>
  <circle id="Oval_Copy_89" data-name="Oval Copy 89" cx="5.128" cy="5.128" r="5.128" transform="translate(189.744 105.641)" fill="rgba(255,0,0,0.06)"/>
  <circle id="Oval_Copy_47" data-name="Oval Copy 47" cx="5.128" cy="5.128" r="5.128" transform="translate(189.744 63.59)" fill="rgba(255,0,0,0.06)"/>
  <circle id="Oval_Copy_90" data-name="Oval Copy 90" cx="5.128" cy="5.128" r="5.128" transform="translate(189.744 147.692)" fill="rgba(255,0,0,0.06)"/>
  <circle id="Oval_Copy_113" data-name="Oval Copy 113" cx="5.128" cy="5.128" r="5.128" transform="translate(189.744 189.744)" fill="rgba(255,0,0,0.06)"/>
</svg>
