<svg width="224" height="224" viewBox="0 0 224 224" fill="none" xmlns="http://www.w3.org/2000/svg">
<circle cx="5.5" cy="5.5" r="5.5" fill="#0E4E94" fill-opacity="0.08"/>
<circle cx="5.5" cy="99.5" r="5.5" fill="#0E4E94" fill-opacity="0.08"/>
<circle cx="5.5" cy="52.5" r="5.5" fill="#0E4E94" fill-opacity="0.08"/>
<circle cx="5.5" cy="147.5" r="5.5" fill="#0E4E94" fill-opacity="0.08"/>
<circle cx="5.5" cy="194.5" r="5.5" fill="#0E4E94" fill-opacity="0.08"/>
<circle cx="5.5" cy="29.5" r="5.5" fill="#0E4E94" fill-opacity="0.08"/>
<circle cx="5.5" cy="124.5" r="5.5" fill="#0E4E94" fill-opacity="0.08"/>
<circle cx="5.5" cy="76.5" r="5.5" fill="#0E4E94" fill-opacity="0.08"/>
<circle cx="5.5" cy="171.5" r="5.5" fill="#0E4E94" fill-opacity="0.08"/>
<circle cx="5.5" cy="218.5" r="5.5" fill="#0E4E94" fill-opacity="0.08"/>
<circle cx="29.5" cy="5.5" r="5.5" fill="#0E4E94" fill-opacity="0.08"/>
<circle cx="29.5" cy="99.5" r="5.5" fill="#0E4E94" fill-opacity="0.08"/>
<circle cx="29.5" cy="52.5" r="5.5" fill="#0E4E94" fill-opacity="0.08"/>
<circle cx="29.5" cy="147.5" r="5.5" fill="#0E4E94" fill-opacity="0.08"/>
<circle cx="29.5" cy="194.5" r="5.5" fill="#0E4E94" fill-opacity="0.08"/>
<circle cx="29.5" cy="29.5" r="5.5" fill="#0E4E94" fill-opacity="0.08"/>
<circle cx="29.5" cy="124.5" r="5.5" fill="#0E4E94" fill-opacity="0.08"/>
<circle cx="29.5" cy="76.5" r="5.5" fill="#0E4E94" fill-opacity="0.08"/>
<circle cx="29.5" cy="171.5" r="5.5" fill="#0E4E94" fill-opacity="0.08"/>
<circle cx="29.5" cy="218.5" r="5.5" fill="#0E4E94" fill-opacity="0.08"/>
<circle cx="52.5" cy="5.5" r="5.5" fill="#0E4E94" fill-opacity="0.08"/>
<circle cx="52.5" cy="99.5" r="5.5" fill="#0E4E94" fill-opacity="0.08"/>
<circle cx="52.5" cy="52.5" r="5.5" fill="#0E4E94" fill-opacity="0.08"/>
<circle cx="52.5" cy="147.5" r="5.5" fill="#0E4E94" fill-opacity="0.08"/>
<circle cx="52.5" cy="194.5" r="5.5" fill="#0E4E94" fill-opacity="0.08"/>
<circle cx="52.5" cy="29.5" r="5.5" fill="#0E4E94" fill-opacity="0.08"/>
<circle cx="52.5" cy="124.5" r="5.5" fill="#0E4E94" fill-opacity="0.08"/>
<circle cx="52.5" cy="76.5" r="5.5" fill="#0E4E94" fill-opacity="0.08"/>
<circle cx="52.5" cy="171.5" r="5.5" fill="#0E4E94" fill-opacity="0.08"/>
<circle cx="52.5" cy="218.5" r="5.5" fill="#0E4E94" fill-opacity="0.08"/>
<circle cx="76.5" cy="5.5" r="5.5" fill="#0E4E94" fill-opacity="0.08"/>
<circle cx="76.5" cy="99.5" r="5.5" fill="#0E4E94" fill-opacity="0.08"/>
<circle cx="76.5" cy="52.5" r="5.5" fill="#0E4E94" fill-opacity="0.08"/>
<circle cx="76.5" cy="147.5" r="5.5" fill="#0E4E94" fill-opacity="0.08"/>
<circle cx="76.5" cy="194.5" r="5.5" fill="#0E4E94" fill-opacity="0.08"/>
<circle cx="76.5" cy="29.5" r="5.5" fill="#0E4E94" fill-opacity="0.08"/>
<circle cx="76.5" cy="124.5" r="5.5" fill="#0E4E94" fill-opacity="0.08"/>
<circle cx="76.5" cy="76.5" r="5.5" fill="#0E4E94" fill-opacity="0.08"/>
<circle cx="76.5" cy="171.5" r="5.5" fill="#0E4E94" fill-opacity="0.08"/>
<circle cx="76.5" cy="218.5" r="5.5" fill="#0E4E94" fill-opacity="0.08"/>
<circle cx="99.5" cy="5.5" r="5.5" fill="#0E4E94" fill-opacity="0.08"/>
<circle cx="99.5" cy="99.5" r="5.5" fill="#0E4E94" fill-opacity="0.08"/>
<circle cx="99.5" cy="52.5" r="5.5" fill="#0E4E94" fill-opacity="0.08"/>
<circle cx="99.5" cy="147.5" r="5.5" fill="#0E4E94" fill-opacity="0.08"/>
<circle cx="99.5" cy="194.5" r="5.5" fill="#0E4E94" fill-opacity="0.08"/>
<circle cx="99.5" cy="29.5" r="5.5" fill="#0E4E94" fill-opacity="0.08"/>
<circle cx="99.5" cy="124.5" r="5.5" fill="#0E4E94" fill-opacity="0.08"/>
<circle cx="99.5" cy="76.5" r="5.5" fill="#0E4E94" fill-opacity="0.08"/>
<circle cx="99.5" cy="171.5" r="5.5" fill="#0E4E94" fill-opacity="0.08"/>
<circle cx="99.5" cy="218.5" r="5.5" fill="#0E4E94" fill-opacity="0.08"/>
<circle cx="124.5" cy="5.5" r="5.5" fill="#0E4E94" fill-opacity="0.08"/>
<circle cx="124.5" cy="99.5" r="5.5" fill="#0E4E94" fill-opacity="0.08"/>
<circle cx="124.5" cy="52.5" r="5.5" fill="#0E4E94" fill-opacity="0.08"/>
<circle cx="124.5" cy="29.5" r="5.5" fill="#0E4E94" fill-opacity="0.08"/>
<circle cx="124.5" cy="124.5" r="5.5" fill="#0E4E94" fill-opacity="0.08"/>
<circle cx="124.5" cy="76.5" r="5.5" fill="#0E4E94" fill-opacity="0.08"/>
<circle cx="124.5" cy="171.5" r="5.5" fill="#0E4E94" fill-opacity="0.08"/>
<circle cx="124.5" cy="218.5" r="5.5" fill="#0E4E94" fill-opacity="0.08"/>
<circle cx="147.5" cy="5.5" r="5.5" fill="#0E4E94" fill-opacity="0.08"/>
<circle cx="147.5" cy="99.5" r="5.5" fill="#0E4E94" fill-opacity="0.08"/>
<circle cx="147.5" cy="52.5" r="5.5" fill="#0E4E94" fill-opacity="0.08"/>
<circle cx="147.5" cy="147.5" r="5.5" fill="#0E4E94" fill-opacity="0.08"/>
<circle cx="147.5" cy="194.5" r="5.5" fill="#0E4E94" fill-opacity="0.08"/>
<circle cx="124.5" cy="147.5" r="5.5" fill="#0E4E94" fill-opacity="0.08"/>
<circle cx="124.5" cy="194.5" r="5.5" fill="#0E4E94" fill-opacity="0.08"/>
<circle cx="147.5" cy="29.5" r="5.5" fill="#0E4E94" fill-opacity="0.08"/>
<circle cx="147.5" cy="124.5" r="5.5" fill="#0E4E94" fill-opacity="0.08"/>
<circle cx="147.5" cy="76.5" r="5.5" fill="#0E4E94" fill-opacity="0.08"/>
<circle cx="147.5" cy="171.5" r="5.5" fill="#0E4E94" fill-opacity="0.08"/>
<circle cx="147.5" cy="218.5" r="5.5" fill="#0E4E94" fill-opacity="0.08"/>
<circle cx="171.5" cy="5.5" r="5.5" fill="#0E4E94" fill-opacity="0.08"/>
<circle cx="171.5" cy="99.5" r="5.5" fill="#0E4E94" fill-opacity="0.08"/>
<circle cx="171.5" cy="52.5" r="5.5" fill="#0E4E94" fill-opacity="0.08"/>
<circle cx="171.5" cy="147.5" r="5.5" fill="#0E4E94" fill-opacity="0.08"/>
<circle cx="171.5" cy="194.5" r="5.5" fill="#0E4E94" fill-opacity="0.08"/>
<circle cx="171.5" cy="29.5" r="5.5" fill="#0E4E94" fill-opacity="0.08"/>
<circle cx="171.5" cy="124.5" r="5.5" fill="#0E4E94" fill-opacity="0.08"/>
<circle cx="171.5" cy="76.5" r="5.5" fill="#0E4E94" fill-opacity="0.08"/>
<circle cx="171.5" cy="171.5" r="5.5" fill="#0E4E94" fill-opacity="0.08"/>
<circle cx="171.5" cy="218.5" r="5.5" fill="#0E4E94" fill-opacity="0.08"/>
<circle cx="194.5" cy="5.5" r="5.5" fill="#0E4E94" fill-opacity="0.08"/>
<circle cx="194.5" cy="99.5" r="5.5" fill="#0E4E94" fill-opacity="0.08"/>
<circle cx="194.5" cy="52.5" r="5.5" fill="#0E4E94" fill-opacity="0.08"/>
<circle cx="194.5" cy="147.5" r="5.5" fill="#0E4E94" fill-opacity="0.08"/>
<circle cx="194.5" cy="194.5" r="5.5" fill="#0E4E94" fill-opacity="0.08"/>
<circle cx="194.5" cy="29.5" r="5.5" fill="#0E4E94" fill-opacity="0.08"/>
<circle cx="194.5" cy="124.5" r="5.5" fill="#0E4E94" fill-opacity="0.08"/>
<circle cx="194.5" cy="76.5" r="5.5" fill="#0E4E94" fill-opacity="0.08"/>
<circle cx="194.5" cy="171.5" r="5.5" fill="#0E4E94" fill-opacity="0.08"/>
<circle cx="194.5" cy="218.5" r="5.5" fill="#0E4E94" fill-opacity="0.08"/>
<circle cx="218.5" cy="5.5" r="5.5" fill="#0E4E94" fill-opacity="0.08"/>
<circle cx="218.5" cy="99.5" r="5.5" fill="#0E4E94" fill-opacity="0.08"/>
<circle cx="218.5" cy="52.5" r="5.5" fill="#0E4E94" fill-opacity="0.08"/>
<circle cx="218.5" cy="147.5" r="5.5" fill="#0E4E94" fill-opacity="0.08"/>
<circle cx="218.5" cy="194.5" r="5.5" fill="#0E4E94" fill-opacity="0.08"/>
<circle cx="218.5" cy="29.5" r="5.5" fill="#0E4E94" fill-opacity="0.08"/>
<circle cx="218.5" cy="124.5" r="5.5" fill="#0E4E94" fill-opacity="0.08"/>
<circle cx="218.5" cy="76.5" r="5.5" fill="#0E4E94" fill-opacity="0.08"/>
<circle cx="218.5" cy="171.5" r="5.5" fill="#0E4E94" fill-opacity="0.08"/>
<circle cx="218.5" cy="218.5" r="5.5" fill="#0E4E94" fill-opacity="0.08"/>
</svg>
